:FULLY-SPECIFIED
:FORCE-ALL-JOINTS-BE-3DOF
:DEGREES
577
root 7.05497 16.3927 -3.58196 -165.917 76.8228 -173.068
lfemur -16.9087 -2.16476 -19.2709
ltibia 44.4009 -0 0
lfoot -32.6589 10.1617 -0.0198079
ltoes 6.8365 -0 0
rfemur -51.8553 -12.4366 14.3143
rtibia 45.4949 -0 0
rfoot 10.014 5.18537 0.00801332
rtoes -31.2281 0 0
lowerback 6.74143 -0.831635 -2.21599
upperback 2.31244 -1.09703 3.46775
thorax -1.28028 -0.524338 4.92195
lowerneck -5.38488 -13.3278 -3.91442
upperneck 10.2167 -18.0514 5.0446
head 4.76454 -8.73483 1.01756
lclavicle 7.06386e-15 -1.05509e-14 6.05541e-31
lhumerus -41.0355 -16.984 93.9643
lradius 55.3832 -0 0
lwrist 22.1409 0 0
lhand -21.0318 -4.29682 0.00750181
lfingers 7.12502 -0 0
lthumb 5.34348 25.61 0.00623587
rclavicle 7.06386e-15 -1.05509e-14 6.05541e-31
rhumerus 28.7262 15.1961 -73.5503
rradius 133.195 -0 0
rwrist -45.8262 0 0
rhand -25.9861 -21.5956 -0.000919914
rfingers 7.12502 -0 0
rthumb 0.559121 -51.5753 -0.000843118
578
root 7.02303 16.4173 -3.58162 -164.721 78.0086 -171.939
lfemur -16.7092 -1.69174 -19.3175
ltibia 43.8342 -0 0
lfoot -32.6615 10.5505 -0.0304193
ltoes 7.357 -0 0
rfemur -51.959 -12.6323 14.7239
rtibia 45.7736 -0 0
rfoot 10.1731 5.53993 0.010945
rtoes -30.7557 0 0
lowerback 6.60911 -0.904975 -2.28348
upperback 2.22183 -1.20882 3.386
thorax -1.29067 -0.58226 4.88077
lowerneck -5.46359 -13.2103 -3.81126
upperneck 10.2647 -17.9009 4.97936
head 4.77217 -8.65883 0.993106
lclavicle 7.59196e-15 -1.10096e-14 8.62897e-31
lhumerus -40.7482 -17.3523 93.8672
lradius 55.3908 -0 0
lwrist 22.0901 0 0
lhand -20.8679 -4.2334 0.0114872
lfingers 7.12502 -0 0
lthumb 5.50158 25.6662 0.00954442
rclavicle 7.59196e-15 -1.10096e-14 8.62897e-31
rhumerus 28.8231 15.021 -73.3583
rradius 132.794 -0 0
rwrist -45.9516 0 0
rhand -25.9716 -21.6176 -0.00111612
rfingers 7.12502 -0 0
rthumb 0.573121 -51.5977 -0.00101092
579
root 6.98804 16.4408 -3.58143 -163.203 79.2491 -170.489
lfemur -16.5103 -1.18838 -19.3676
ltibia 43.2639 -0 0
lfoot -32.6678 10.9567 -0.0414081
ltoes 7.89887 -0 0
rfemur -52.0647 -12.833 15.1435
rtibia 46.0803 -0 0
rfoot 10.332 5.92068 0.0129958
rtoes -30.2613 0 0
lowerback 6.47331 -0.981309 -2.35244
upperback 2.12867 -1.32459 3.30239
thorax -1.30142 -0.642099 4.83851
lowerneck -5.54648 -13.0876 -3.7038
upperneck 10.3186 -17.7439 4.91157
head 4.7817 -8.57941 0.967373
lclavicle 8.23676e-15 -1.14352e-14 1.08708e-30
lhumerus -40.4408 -17.7508 93.7762
lradius 55.4036 -0 0
lwrist 22.0376 0 0
lhand -20.6936 -4.16646 0.0155695
lfingers 7.12502 -0 0
lthumb 5.66977 25.7254 0.01293
rclavicle 8.23676e-15 -1.14352e-14 1.08708e-30
rhumerus 28.9083 14.8306 -73.1664
rradius 132.369 -0 0
rwrist -46.0916 0 0
rhand -25.9614 -21.6451 -0.00113362
rfingers 7.12502 -0 0
rthumb 0.582952 -51.6255 -0.00100693
580
root 6.95024 16.4631 -3.58141 -161.217 80.5372 -168.571
lfemur -16.3126 -0.656043 -19.421
ltibia 42.692 -0 0
lfoot -32.6777 11.3789 -0.0526992
ltoes 8.46046 -0 0
rfemur -52.1722 -13.0381 15.5717
rtibia 46.4145 -0 0
rfoot 10.4901 6.32659 0.0140588
rtoes -29.7464 0 0
lowerback 6.33447 -1.06042 -2.42263
upperback 2.03326 -1.444 3.21719
thorax -1.3125 -0.703668 4.79532
lowerneck -5.63326 -12.96 -3.59237
upperneck 10.3784 -17.581 4.84148
head 4.79313 -8.49679 0.940441
lclavicle 8.99745e-15 -1.18257e-14 1.27623e-30
lhumerus -40.114 -18.1784 93.6911
lradius 55.4217 -0 0
lwrist 21.9833 0 0
lhand -20.5093 -4.09618 0.0197042
lfingers 7.12502 -0 0
lthumb 5.84756 25.7876 0.0163553
rclavicle 8.99745e-15 -1.18257e-14 1.27623e-30
rhumerus 28.9812 14.6253 -72.9752
rradius 131.923 -0 0
rwrist -46.246 0 0
rhand -25.9557 -21.6781 -0.00097189
rfingers 7.12502 -0 0
rthumb 0.588528 -51.6588 -0.000830807
581
root 6.90985 16.4844 -3.58156 -158.514 81.8634 -165.937
lfemur -16.117 -0.0961245 -19.4773
ltibia 42.1205 -0 0
lfoot -32.6914 11.816 -0.0642145
ltoes 9.04013 -0 0
rfemur -52.2812 -13.2468 16.0073
rtibia 46.7753 -0 0
rfoot 10.6468 6.75664 0.0140417
rtoes -29.2125 0 0
lowerback 6.19302 -1.14207 -2.49382
upperback 1.93591 -1.56669 3.1307
thorax -1.32387 -0.766781 4.75133
lowerneck -5.72367 -12.8278 -3.47732
upperneck 10.4439 -17.4124 4.76933
head 4.80643 -8.41121 0.912393
lclavicle 9.87318e-15 -1.21792e-14 1.42875e-30
lhumerus -39.7684 -18.6341 93.612
lradius 55.4452 -0 0
lwrist 21.9276 0 0
lhand -20.3155 -4.02275 0.0238476
lfingers 7.12502 -0 0
lthumb 6.03451 25.8524 0.0197838
rclavicle 9.87318e-15 -1.21792e-14 1.42875e-30
rhumerus 29.0414 14.4057 -72.7854
rradius 131.455 -0 0
rwrist -46.4143 0 0
rhand -25.9544 -21.7165 -0.000631795
rfingers 7.12502 -0 0
rthumb 0.589762 -51.6975 -0.000483491
582
root 6.86712 16.5046 -3.58192 -154.641 83.2132 -162.132
lfemur -15.9242 0.489994 -19.5365
ltibia 41.5515 -0 0
lfoot -32.7088 12.2668 -0.0758729
ltoes 9.63625 -0 0
rfemur -52.3915 -13.4585 16.4489
rtibia 47.1621 -0 0
rfoot 10.8015 7.20981 0.0128677
rtoes -28.6611 0 0
lowerback 6.04941 -1.22605 -2.56577
upperback 1.83692 -1.69232 3.04318
thorax -1.3355 -0.831252 4.70668
lowerneck -5.81744 -12.6915 -3.35902
upperneck 10.515 -17.2388 4.69538
head 4.8216 -8.3229 0.883307
lclavicle 1.08631e-14 -1.2494e-14 1.54335e-30
lhumerus -39.4048 -19.117 93.5388
lradius 55.474 -0 0
lwrist 21.8706 0 0
lhand -20.1127 -3.94637 0.0279569
lfingers 7.12502 -0 0
lthumb 6.23014 25.9198 0.0231796
rclavicle 1.08631e-14 -1.2494e-14 1.54335e-30
rhumerus 29.0883 14.1724 -72.5976
rradius 130.968 -0 0
rwrist -46.5964 0 0
rhand -25.9577 -21.7603 -0.000115583
rfingers 7.12502 -0 0
rthumb 0.586569 -51.7416 3.27264e-05
583
root 6.82228 16.5238 -3.58251 -148.695 84.5603 -156.254
lfemur -15.735 1.10092 -19.5982
ltibia 40.9867 -0 0
lfoot -32.7299 12.73 -0.0875911
ltoes 10.2472 -0 0
rfemur -52.5026 -13.6726 16.8951
rtibia 47.574 -0 0
rfoot 10.9537 7.68509 0.0104766
rtoes -28.0936 0 0
lowerback 5.90407 -1.31212 -2.63825
upperback 1.73659 -1.82051 2.95493
thorax -1.34736 -0.896895 4.6615
lowerneck -5.91431 -12.5513 -3.2378
upperneck 10.5915 -17.0604 4.61986
head 4.83862 -8.23211 0.853264
lclavicle 1.19665e-14 -1.27679e-14 1.61902e-30
lhumerus -39.0239 -19.6261 93.4714
lradius 55.5081 -0 0
lwrist 21.8123 0 0
lhand -19.9015 -3.86723 0.0319905
lfingers 7.12502 -0 0
lthumb 6.43398 25.9895 0.0265079
rclavicle 1.19665e-14 -1.27679e-14 1.61902e-30
rhumerus 29.1216 13.9258 -72.4123
rradius 130.462 -0 0
rwrist -46.7919 0 0
rhand -25.9657 -21.8095 0.000573074
rfingers 7.12502 -0 0
rthumb 0.578862 -51.791 0.000714184
584
root 6.77556 16.542 -3.58335 -138.71 85.8484 -146.337
lfemur -15.5501 1.73527 -19.6625
ltibia 40.4282 -0 0
lfoot -32.7549 13.2045 -0.0992838
ltoes 10.8712 -0 0
rfemur -52.6143 -13.8884 17.3447
rtibia 48.0105 -0 0
rfoot 11.1027 8.18144 0.00682598
rtoes -27.5115 0 0
lowerback 5.75744 -1.40005 -2.71103
upperback 1.63522 -1.95093 2.86621
thorax -1.35941 -0.963522 4.61592
lowerneck -6.01403 -12.4076 -3.114
upperneck 10.6732 -16.8779 4.54302
head 4.85747 -8.13907 0.822345
lclavicle 1.31823e-14 -1.29992e-14 1.65509e-30
lhumerus -38.6264 -20.1603 93.4098
lradius 55.5476 -0 0
lwrist 21.7531 0 0
lhand -19.6821 -3.78551 0.0359082
lfingers 7.12502 -0 0
lthumb 6.64557 26.0614 0.0297352
rclavicle 1.31823e-14 -1.29992e-14 1.65509e-30
rhumerus 29.1408 13.6666 -72.2303
rradius 129.939 -0 0
rwrist -47.0004 0 0
rhand -25.9784 -21.8641 0.00142905
rfingers 7.12502 -0 0
rthumb 0.566555 -51.8458 0.00155583
585
root 6.72719 16.5592 -3.58445 -120.389 86.9325 -128.083
lfemur -15.3704 2.39165 -19.7292
ltibia 39.878 -0 0
lfoot -32.7836 13.689 -0.110864
ltoes 11.5068 -0 0
rfemur -52.7262 -14.1054 17.7962
rtibia 48.4706 -0 0
rfoot 11.248 8.69787 0.00189169
rtoes -26.9162 0 0
lowerback 5.60995 -1.48961 -2.78388
upperback 1.5331 -2.08321 2.7773
thorax -1.37161 -1.03095 4.57009
lowerneck -6.11633 -12.2609 -2.98798
upperneck 10.7602 -16.6917 4.46509
head 4.87814 -8.04401 0.79063
lclavicle 1.451e-14 -1.31859e-14 1.65122e-30
lhumerus -38.213 -20.7187 93.354
lradius 55.5924 -0 0
lwrist 21.693 0 0
lhand -19.4553 -3.70141 0.0396715
lfingers 7.12502 -0 0
lthumb 6.86444 26.1353 0.0328296
rclavicle 1.451e-14 -1.31859e-14 1.65122e-30
rhumerus 29.1454 13.3954 -72.052
rradius 129.399 -0 0
rwrist -47.2217 0 0
rhand -25.996 -21.9239 0.00244573
rfingers 7.12502 -0 0
rthumb 0.549562 -51.9058 0.00255117
586
root 6.67741 16.5755 -3.58584 -88.8391 87.4535 -96.5995
lfemur -15.1965 3.06865 -19.7982
ltibia 39.3379 -0 0
lfoot -32.8162 14.1824 -0.122243
ltoes 12.1523 -0 0
rfemur -52.838 -14.3228 18.2483
rtibia 48.9537 -0 0
rfoot 11.3891 9.23333 -0.00433118
rtoes -26.3093 0 0
lowerback 5.46204 -1.58056 -2.85658
upperback 1.43054 -2.21699 2.68847
thorax -1.38393 -1.09898 4.52414
lowerneck -6.22096 -12.1113 -2.86006
upperneck 10.8521 -16.5022 4.38631
head 4.90063 -7.94717 0.758199
lclavicle 1.59485e-14 -1.33261e-14 1.60741e-30
lhumerus -37.7844 -21.3004 93.3039
lradius 55.6427 -0 0
lwrist 21.6323 0 0
lhand -19.2213 -3.61513 0.0432439
lfingers 7.12502 -0 0
lthumb 7.09013 26.2111 0.0357607
rclavicle 1.59485e-14 -1.33261e-14 1.60741e-30
rhumerus 29.135 13.1125 -71.878
rradius 128.845 -0 0
rwrist -47.4555 0 0
rhand -26.0185 -21.9891 0.003615
rfingers 7.12502 -0 0
rthumb 0.527798 -51.971 0.00369228
